<svg xmlns="http://www.w3.org/2000/svg" width="100" height="46.67" viewBox="0 0 100 46.67" id="svg_hide">
    <g id="svg_ico_sir" fill="#304153">
        <path
            d="M25.338 31.972c0-2.2-1.926-3.375-7.457-4.162C10.021 26.71.797 24.12.797 14.376.797 4.949 9.94 0 19.645 0c5.775 0 11.144 1.413 14.594 3.85a5.451 5.451 0 011.286 7.542c-1.523 2.277-3.848 3.14-6.979 1.727a19.9 19.9 0 00-8.982-1.885c-3.69 0-5.453 1.492-5.453 2.987 0 2.355 3.608 3.142 9.546 3.925 8.82 1.18 15.158 5.424 15.158 13.671 0 9.036-8.582 14.456-18.37 14.613-7.373.155-14.112-1.413-18.524-5.422a5.391 5.391 0 01-.564-7.7 6.252 6.252 0 018.183-1.02 18.268 18.268 0 009.865 2.825c3.848.001 5.933-1.176 5.933-3.141z"
        />
        <path d="M51.438 0a8.1 8.1 0 11-8.1 8.1 8.179 8.179 0 018.1-8.1z" />
        <path
            d="M88.314 12.178c-4.571 0-8.661 4.24-8.661 10.368v17.6c0 4.087-2.966 6.522-6.979 6.522s-6.979-2.435-6.979-6.522V6.522C65.695 2.435 68.663 0 72.674 0c3.289 0 5.935 1.728 6.739 4.557A13.485 13.485 0 0189.518 0c3.289 0 6.015.548 8.1 1.963a6.1 6.1 0 011.763 7.622c-1.363 3.067-4.652 4.322-6.655 3.535a11.473 11.473 0 00-4.412-.942z"
        />
        <path d="M51.439 20.524c-4.011 0-6.979 2.49-6.979 6.658V40.13h.031c.167 3.952 3.051 6.312 6.948 6.312s6.776-2.36 6.944-6.312h.031V27.182c0-4.168-2.968-6.658-6.975-6.658z" />
    </g>
</svg>